<svg width="0" height="0" class="hidden" xmlns="http://www.w3.org/2000/svg">
    <symbol viewBox="0 0 269.6 74" style="enable-background:new 0 0 269.6 74;" xml:space="preserve" id="logo">
<style type="text/css">
	.st0{fill:#000066;}
	.st1{fill-rule:evenodd;clip-rule:evenodd;fill:#E3BD76;}
	.st2{fill-rule:evenodd;clip-rule:evenodd;fill:#000066;}
</style>
        <path class="st0"
              d="M254.3,55.9v-5h-13.9v-5.4h12v-5h-12v-5.2h13.7v-5h-19.2v25.5H254.3z M223.4,48.3L223.4,48.3  c0-1.2-0.2-2.2-0.5-3c-0.4-0.8-0.9-1.5-1.6-2.1c-0.7-0.6-1.6-1.1-2.6-1.5c-1-0.4-2.2-0.8-3.5-1.1c-1.1-0.3-2-0.5-2.7-0.8  c-0.7-0.2-1.3-0.5-1.7-0.7c-0.4-0.2-0.7-0.5-0.9-0.8c-0.2-0.3-0.2-0.7-0.2-1.1v-0.1c0-0.6,0.3-1.2,0.8-1.6c0.5-0.4,1.4-0.6,2.5-0.6  c1.1,0,2.2,0.2,3.3,0.7c1.1,0.5,2.2,1.1,3.4,1.8l2.9-4.2c-1.3-1-2.8-1.8-4.3-2.4c-1.6-0.6-3.3-0.8-5.2-0.8c-1.3,0-2.5,0.2-3.6,0.5  c-1.1,0.4-2,0.9-2.8,1.6c-0.8,0.7-1.4,1.5-1.8,2.4c-0.4,0.9-0.7,2-0.7,3.2v0.1c0,1.3,0.2,2.3,0.6,3.2c0.4,0.9,1,1.6,1.7,2.1  c0.7,0.6,1.6,1.1,2.7,1.4c1.1,0.4,2.2,0.7,3.5,1.1c1.1,0.3,1.9,0.5,2.6,0.8c0.7,0.2,1.2,0.5,1.6,0.7c0.4,0.2,0.6,0.5,0.8,0.8  c0.1,0.3,0.2,0.6,0.2,1v0.1c0,0.8-0.3,1.3-1,1.8c-0.6,0.4-1.6,0.6-2.7,0.6c-1.5,0-2.8-0.3-4-0.8c-1.2-0.6-2.4-1.3-3.6-2.3l-3.3,4  c1.5,1.4,3.2,2.4,5.1,3.1c1.9,0.7,3.8,1,5.7,1c1.4,0,2.7-0.2,3.8-0.5c1.1-0.4,2.1-0.9,2.9-1.5c0.8-0.7,1.5-1.5,1.9-2.5  C223.2,50.7,223.4,49.6,223.4,48.3z M192.7,44.7V30.3H187V45c0,2-0.5,3.6-1.5,4.6c-1,1-2.3,1.5-4.1,1.5c-1.7,0-3.1-0.5-4.1-1.6  c-1-1.1-1.5-2.6-1.5-4.7V30.3h-5.6v14.6c0,3.8,1,6.6,3,8.5c2,1.9,4.7,2.8,8.1,2.8c1.7,0,3.2-0.2,4.6-0.7c1.4-0.5,2.6-1.2,3.5-2.2  c1-1,1.7-2.2,2.2-3.6C192.4,48.4,192.7,46.7,192.7,44.7z M159.9,35.5v-5.2h-21.2v5.2h7.8v20.4h5.6V35.5H159.9z M127.9,55.9V30.3  h-5.5v15.7l-12-15.7h-5.2v25.5h5.5V39.6l12.4,16.2H127.9z M92.2,55.9V30.3h-5.6v25.5H92.2z"/>
        <path class="st0"
              d="M264.4,32.4c0.8,0,1.2-0.3,1.2-0.9c0-0.3-0.1-0.5-0.3-0.6c-0.2-0.1-0.5-0.2-0.9-0.2h-1.1v1.7H264.4z   M262.7,30.1h1.7c0.6,0,1,0.1,1.4,0.4c0.3,0.2,0.5,0.6,0.5,1c0,0.8-0.4,1.2-1.3,1.4l1.3,1.5h-0.8l-1.3-1.5h-0.9v1.5h-0.7V30.1z   M264.2,35.9c0.6,0,1.2-0.2,1.8-0.5c0.5-0.3,1-0.7,1.3-1.3c0.3-0.5,0.5-1.1,0.5-1.8c0-0.6-0.2-1.2-0.5-1.8c-0.3-0.5-0.7-1-1.3-1.3  c-0.5-0.3-1.1-0.5-1.8-0.5c-0.6,0-1.2,0.2-1.7,0.5s-1,0.7-1.3,1.3c-0.3,0.5-0.5,1.1-0.5,1.7c0,0.6,0.2,1.2,0.5,1.8  c0.3,0.5,0.7,1,1.3,1.3C263,35.8,263.6,35.9,264.2,35.9z M264.2,36.5c-0.7,0-1.4-0.2-2-0.6c-0.6-0.4-1.1-0.9-1.5-1.5  c-0.4-0.6-0.6-1.3-0.6-2.1c0-0.7,0.2-1.4,0.6-2.1c0.4-0.6,0.9-1.1,1.5-1.5c0.6-0.4,1.3-0.6,2-0.6c0.8,0,1.5,0.2,2.1,0.6  c0.6,0.4,1.1,0.9,1.5,1.5c0.4,0.6,0.6,1.3,0.6,2.1c0,0.8-0.2,1.5-0.6,2.1c-0.4,0.6-0.9,1.1-1.5,1.5C265.7,36.3,265,36.5,264.2,36.5z  "/>
        <path class="st1" d="M11.9,26.4v36.1l16.4,8.7V35L11.9,26.4z M23.3,62.8L17,59.5V34.7l6.3,3.3V62.8z"/>
        <polygon class="st1" points="33.4,72.1 54.9,67.6 54.9,36.5 59.9,36.5 59.9,72.6 33.4,72.6 "/>
        <path class="st2"
              d="M23.3,26.6l5.1,2.7v-21V3.2C13.8,4.6,2.3,16.7,1.8,31.4h5v0l0,0c0.4-10.2,7.2-18.8,16.4-22V26.6z"/>
        <path class="st2"
              d="M38.5,26.6l-5.1,2.7v-21V3.2c14.5,1.4,26,13.5,26.5,28.2h-5v0l0,0c-0.4-10.2-7.2-18.8-16.4-22V26.6z"/>
        <path class="st1" d="M33.4,35v36.2l16.4-8.7V26.4L33.4,35z M44.8,59.5l-6.3,3.3V38.1l6.3-3.3V59.5z"/>
        <polygon class="st1" points="28.3,72.1 6.9,67.6 6.9,36.5 1.8,36.5 1.8,72.6 28.3,72.6 "/>
</symbol>
    <symbol viewBox="0 0 48 8" fill="none" id="logo-resense">
        <path d="M3.29738 4.85634H1.55931V7.89161H0V0H3.15562C4.19101 0 4.99017 0.204365 5.55318 0.612924C6.11602 1.02165 6.39753 1.61297 6.39753 2.38686C6.39753 2.91488 6.25264 3.35696 5.96304 3.71319C5.67334 4.06934 5.26967 4.3433 4.75194 4.53499L6.76733 7.82124V7.89161H5.09709L3.29738 4.85634ZM1.55931 3.75071H3.1618C3.68764 3.75071 4.09863 3.63415 4.39441 3.40111C4.69029 3.16799 4.83823 2.84919 4.83823 2.44446C4.83823 2.0217 4.70152 1.69464 4.42837 1.46339C4.15505 1.23223 3.74728 1.11295 3.20491 1.10571H1.55931V3.75071Z"
              fill="currentColor"/>
        <path d="M10.8454 8C9.89622 8 9.12676 7.7371 8.53718 7.21138C7.94752 6.68567 7.65278 5.98562 7.65278 5.11107V4.94848C7.65278 4.36313 7.78113 3.84013 8.03799 3.37942C8.29477 2.9187 8.65525 2.56009 9.11962 2.30348C9.58389 2.04696 10.1016 1.91866 10.6728 1.91866C11.5808 1.91866 12.2824 2.1734 12.7776 2.68295C13.2727 3.19241 13.5203 3.9133 13.5203 4.84554V5.3767H9.1628C9.208 5.86098 9.39181 6.24393 9.71441 6.52572C10.0369 6.80759 10.4426 6.94848 10.9317 6.94848C11.6178 6.94848 12.1767 6.70464 12.6081 6.21679L13.4155 6.89429C13.1483 7.24482 12.7919 7.51674 12.3461 7.71004C11.9003 7.90326 11.4001 8 10.8454 8ZM10.6666 2.97562C10.2557 2.97562 9.924 3.10214 9.67123 3.355C9.41854 3.60795 9.25728 3.96027 9.18745 4.41188H12.0411V4.31437C12.0081 3.87357 11.8746 3.54022 11.6405 3.31433C11.4062 3.08861 11.0816 2.97562 10.6666 2.97562Z"
              fill="currentColor"/>
        <path d="M18.5968 6.29812C18.5968 6.0633 18.4869 5.88437 18.2672 5.76152C18.0473 5.63875 17.6826 5.53035 17.1732 5.43634C16.6636 5.34241 16.2384 5.22312 15.8973 5.07857C15.1494 4.76071 14.7756 4.3 14.7756 3.69643C14.7756 3.19062 15.018 2.76786 15.5029 2.42821C15.9877 2.08857 16.604 1.91866 17.3519 1.91866C18.149 1.91866 18.793 2.09214 19.2841 2.43902C19.775 2.78589 20.0206 3.2358 20.0206 3.78857H18.5229C18.5229 3.53571 18.416 3.32522 18.2024 3.15719C17.9887 2.98915 17.7052 2.90518 17.3519 2.90518C17.0231 2.90518 16.755 2.97205 16.5476 3.10571C16.3401 3.23938 16.2364 3.4183 16.2364 3.64223C16.2364 3.84464 16.3329 4.00187 16.526 4.11384C16.7191 4.22589 17.1094 4.33871 17.697 4.45255C18.2846 4.56638 18.7457 4.70192 19.0807 4.85906C19.4155 5.01629 19.6641 5.20509 19.8265 5.42545C19.9887 5.64589 20.0699 5.9133 20.0699 6.22768C20.0699 6.75526 19.8213 7.18254 19.3242 7.50951C18.827 7.83656 18.1757 8 17.3704 8C16.8239 8 16.3369 7.9133 15.9097 7.73982C15.4823 7.56643 15.1494 7.32794 14.9112 7.02438C14.6729 6.72089 14.5538 6.39393 14.5538 6.04339H16.0083C16.0288 6.35419 16.1624 6.59353 16.4089 6.76156C16.6555 6.92951 16.9821 7.01357 17.3889 7.01357C17.7833 7.01357 18.0832 6.94763 18.2887 6.81576C18.4941 6.68388 18.5968 6.51134 18.5968 6.29812Z"
              fill="currentColor"/>
        <path d="M24.487 8C23.5378 8 22.7683 7.7371 22.1788 7.21138C21.5891 6.68567 21.2944 5.98562 21.2944 5.11107V4.94848C21.2944 4.36313 21.4227 3.84013 21.6796 3.37942C21.9364 2.9187 22.2968 2.56009 22.7612 2.30348C23.2255 2.04696 23.7432 1.91866 24.3144 1.91866C25.2224 1.91866 25.924 2.1734 26.4192 2.68295C26.9143 3.19241 27.1619 3.9133 27.1619 4.84554V5.3767H22.8044C22.8496 5.86098 23.0334 6.24393 23.356 6.52572C23.6785 6.80759 24.0842 6.94848 24.5733 6.94848C25.2594 6.94848 25.8183 6.70464 26.2497 6.21679L27.0571 6.89429C26.7899 7.24482 26.4335 7.51674 25.9877 7.71004C25.5419 7.90326 25.0417 8 24.487 8ZM24.3082 2.97562C23.8973 2.97562 23.5656 3.10214 23.3128 3.355C23.0601 3.60795 22.8989 3.96027 22.829 4.41188H25.6827V4.31437C25.6497 3.87357 25.5162 3.54022 25.2821 3.31433C25.0478 3.08861 24.7232 2.97562 24.3082 2.97562Z"
              fill="currentColor"/>
        <path d="M29.8902 2.02706L29.9333 2.70456C30.4264 2.18071 31.0735 1.91866 31.8747 1.91866C33.2635 1.91866 33.9703 2.61786 33.995 4.01625V7.89161H32.4972V4.09214C32.4972 3.72 32.4058 3.44442 32.223 3.26558C32.0401 3.08674 31.7412 2.99732 31.3263 2.99732C30.7222 2.99732 30.2723 3.23759 29.9764 3.71813V7.89161H28.4788V2.02706H29.8902Z"
              fill="currentColor"/>
        <path d="M39.4351 6.29812C39.4351 6.0633 39.3252 5.88437 39.1055 5.76152C38.8855 5.63875 38.5209 5.53035 38.0115 5.43634C37.5019 5.34241 37.0767 5.22312 36.7356 5.07857C35.9877 4.76071 35.6139 4.3 35.6139 3.69643C35.6139 3.19062 35.8563 2.76786 36.3412 2.42821C36.826 2.08857 37.4423 1.91866 38.1902 1.91866C38.9872 1.91866 39.6314 2.09214 40.1223 2.43902C40.6134 2.78589 40.8589 3.2358 40.8589 3.78857H39.3613C39.3613 3.53571 39.2544 3.32522 39.0407 3.15719C38.827 2.98915 38.5435 2.90518 38.1902 2.90518C37.8614 2.90518 37.5933 2.97205 37.3859 3.10571C37.1784 3.23938 37.0747 3.4183 37.0747 3.64223C37.0747 3.84464 37.1711 4.00187 37.3643 4.11384C37.5574 4.22589 37.9477 4.33871 38.5353 4.45255C39.1229 4.56638 39.584 4.70192 39.9189 4.85906C40.2538 5.01629 40.5025 5.20509 40.6648 5.42545C40.8271 5.64589 40.9082 5.9133 40.9082 6.22768C40.9082 6.75526 40.6595 7.18254 40.1624 7.50951C39.6652 7.83656 39.0139 8 38.2087 8C37.6621 8 37.1752 7.9133 36.748 7.73982C36.3206 7.56643 35.9877 7.32794 35.7495 7.02438C35.5112 6.72089 35.3921 6.39393 35.3921 6.04339H36.8466C36.8671 6.35419 37.0006 6.59353 37.2472 6.76156C37.4937 6.92951 37.8204 7.01357 38.2272 7.01357C38.6216 7.01357 38.9216 6.94763 39.1271 6.81576C39.3324 6.68388 39.4351 6.51134 39.4351 6.29812Z"
              fill="currentColor"/>
        <path d="M45.3251 8C44.376 8 43.6066 7.7371 43.017 7.21138C42.4273 6.68567 42.1327 5.98562 42.1327 5.11107V4.94848C42.1327 4.36313 42.261 3.84013 42.5177 3.37942C42.7746 2.9187 43.135 2.56009 43.5995 2.30348C44.0638 2.04696 44.5815 1.91866 45.1525 1.91866C46.0607 1.91866 46.7622 2.1734 47.2574 2.68295C47.7525 3.19241 48 3.9133 48 4.84554V5.3767H43.6425C43.6878 5.86098 43.8715 6.24393 44.1942 6.52572C44.5167 6.80759 44.9225 6.94848 45.4115 6.94848C46.0976 6.94848 46.6565 6.70464 47.0878 6.21679L47.8953 6.89429C47.6282 7.24482 47.2717 7.51674 46.8259 7.71004C46.3801 7.90326 45.8799 8 45.3251 8ZM45.1464 2.97562C44.7355 2.97562 44.4037 3.10214 44.151 3.355C43.8983 3.60795 43.7371 3.96027 43.6672 4.41188H46.5208V4.31437C46.4879 3.87357 46.3545 3.54022 46.1203 3.31433C45.886 3.08861 45.5614 2.97562 45.1464 2.97562Z"
              fill="currentColor"/>
    </symbol>
    <symbol viewBox="0 0 38 18" fill="none" id="icon-arrow-left">
        <path d="M12.3912 0C12.3912 0.933252 11.2558 2.32684 10.1066 3.49655C8.62891 5.00585 6.86317 6.32272 4.83876 7.32766C3.32084 8.08105 1.48075 8.80426 -3.45757e-07 8.80426M-3.45757e-07 8.80426C1.48075 8.80426 3.32239 9.52747 4.83876 10.2809C6.86317 11.2871 8.62891 12.6039 10.1066 14.1107C11.2558 15.2817 12.3912 16.6778 12.3912 17.6085M-3.45757e-07 8.80426L37.1736 8.80426"
              stroke="currentColor" stroke-width="1.5"/>
    </symbol>
    <symbol viewBox="0 0 38 18" fill="none" id="icon-arrow-right">
        <path d="M24.7826 17.6084C24.7826 16.6751 25.918 15.2816 27.0673 14.1118C28.5449 12.6025 30.3107 11.2857 32.3351 10.2807C33.853 9.52734 35.6931 8.80414 37.1738 8.80414M37.1738 8.80414C35.6931 8.80414 33.8514 8.08093 32.3351 7.32754C30.3107 6.32134 28.5449 5.00447 27.0673 3.49768C25.918 2.32672 24.7826 0.930612 24.7826 -0.000124606M37.1738 8.80414L0.000271805 8.80413"
              stroke="currentColor" stroke-width="1.5"/>
    </symbol>
    <symbol viewBox="0 0 22 18" fill="none" id="icon-arrow-mob-left">
        <path d="M12.3912 -0.000488281C12.3912 0.932763 11.2558 2.32635 10.1066 3.49606C8.62891 5.00536 6.86317 6.32223 4.83876 7.32717C3.32084 8.08057 1.48075 8.80377 -5.06894e-07 8.80377M-5.06894e-07 8.80377C1.48075 8.80377 3.32239 9.52698 4.83876 10.2804C6.86317 11.2866 8.62891 12.6034 10.1066 14.1102C11.2558 15.2812 12.3912 16.6773 12.3912 17.608M-5.06894e-07 8.80377L21.1738 8.80377"
              stroke="currentColor" stroke-width="1.5"/>
    </symbol>
    <symbol viewBox="0 0 22 18" fill="none" id="icon-arrow-mob-right">
        <path d="M8.78264 17.6084C8.78264 16.6751 9.91799 15.2816 11.0673 14.1118C12.5449 12.6025 14.3107 11.2857 16.3351 10.2807C17.853 9.52734 19.6931 8.80414 21.1738 8.80414M21.1738 8.80414C19.6931 8.80414 17.8514 8.08093 16.3351 7.32754C14.3107 6.32134 12.5449 5.00447 11.0673 3.49768C9.91799 2.32672 8.78264 0.930611 8.78264 -0.000124845M21.1738 8.80414L-9.45601e-07 8.80414"
              stroke="currentColor" stroke-width="1.5"/>
    </symbol>
    <symbol viewBox="0 0 6 3" fill="none" id="icon-arrow-down">
        <path d="M3 3L0.401923 -1.25623e-08L5.59808 4.417e-07L3 3Z" fill="currentColor"/>
    </symbol>
    <symbol viewBox="0 0 268 322" fill="none" id="icon-logo">
        <path fill-rule="evenodd" clip-rule="evenodd"
              d="M145.805 147.013L222 107V273.987L145.805 314V291.593V147.013ZM169.415 160.884L198.927 145.412V259.582L169.415 275.054V160.884ZM122.195 147.013L46 107V273.987L122.195 314V291.593V147.013ZM98.5853 160.884L69.0731 145.412V259.582L98.5853 275.054V160.884Z"
              fill="#E2BC76"/>
        <path fill-rule="evenodd" clip-rule="evenodd" d="M145 319.3L244.47 298.243V153H268V322H145V319.3Z"
              fill="#E2BC76"/>
        <path fill-rule="evenodd" clip-rule="evenodd"
              d="M99.4696 107.714L123 119.918V23.3469V0C55.6174 6.36735 2.13913 62.0816 0 130H23.5304C25.6696 83.3061 56.6869 43.5102 99.4696 28.6531V107.714Z"
              fill="#000066"/>
        <path fill-rule="evenodd" clip-rule="evenodd"
              d="M168.53 107.714L145 119.918V23.3469V0C212.383 6.36735 265.861 62.0816 268 130H244.47C242.33 83.3061 211.313 43.5102 168.53 28.6531V107.714Z"
              fill="#000066"/>
        <path fill-rule="evenodd" clip-rule="evenodd" d="M123 319.3L23.5304 298.243V153H0V322H123V319.3Z"
              fill="#E2BC76"/>
    </symbol>
    <symbol viewBox="0 0 61 63" fill="none" id="icon-cookie">
        <path fill-rule="evenodd" clip-rule="evenodd" d="M20.4934 45.9269C33.9161 45.9269 44.7975 35.0456 44.7975 21.6229C44.7975 20.8065 44.7573 19.9994 44.6784 19.2037C54.0673 21.6378 61.0001 30.1684 61.0001 40.3183C61.0001 52.3644 51.2349 62.1296 39.1888 62.1296C29.0389 62.1296 20.5083 55.1967 18.0742 45.8079C18.87 45.8867 19.677 45.9269 20.4934 45.9269ZM53.2104 37.2024C53.2104 38.9233 51.8154 40.3183 50.0945 40.3183C48.3736 40.3183 46.9786 38.9233 46.9786 37.2024C46.9786 35.4815 48.3736 34.0865 50.0945 34.0865C51.8154 34.0865 53.2104 35.4815 53.2104 37.2024ZM34.9045 50.445C34.9045 51.7356 33.8582 52.7819 32.5676 52.7819C31.2769 52.7819 30.2306 51.7356 30.2306 50.445C30.2306 49.1544 31.2769 48.108 32.5676 48.108C33.8582 48.108 34.9045 49.1544 34.9045 50.445ZM43.8627 44.9921H46.9786V48.108H43.8627V44.9921Z" fill="#E2BC76"/>
        <path fill-rule="evenodd" clip-rule="evenodd" d="M41.7963 21.463C41.7963 33.3165 32.4397 42.9259 20.8981 42.9259C9.35643 42.9259 0 33.3165 0 21.463C0 9.60931 9.35643 0 20.8981 0C32.4397 0 41.7963 9.60931 41.7963 21.463ZM17.8361 12.0287C17.8361 13.7655 16.4652 15.1735 14.7741 15.1735C13.0831 15.1735 11.7121 13.7655 11.7121 12.0287C11.7121 10.2919 13.0831 8.88394 14.7741 8.88394C16.4652 8.88394 17.8361 10.2919 17.8361 12.0287ZM28.5531 30.8972C30.2443 30.8972 31.6151 29.4893 31.6151 27.7525C31.6151 26.0157 30.2443 24.6077 28.5531 24.6077C26.862 24.6077 25.4911 26.0157 25.4911 27.7525C25.4911 29.4893 26.862 30.8972 28.5531 30.8972ZM19.3671 31.6834C19.3671 32.986 18.339 34.042 17.0706 34.042C15.8023 34.042 14.7741 32.986 14.7741 31.6834C14.7741 30.3808 15.8023 29.3249 17.0706 29.3249C18.339 29.3249 19.3671 30.3808 19.3671 31.6834ZM22.4291 15.1735H25.4911V18.3182H22.4291V15.1735ZM8.65015 21.463H11.7121V24.6077H8.65015V21.463ZM31.6151 16.7458H34.6771V19.8906H31.6151V16.7458Z" fill="#E2BC76"/>
    </symbol>
    <symbol viewBox="0 0 23 24" fill="none" id="icon-close">
        <rect x="0.212891" y="1.41418" width="2" height="30" transform="rotate(-45 0.212891 1.41418)" fill="white"/>
        <rect x="21.2129" y="0.414185" width="2" height="30" transform="rotate(45 21.2129 0.414185)" fill="white"/>
    </symbol>
</svg>
